<svg width="16" height="16" viewBox="0 0 16 16" fill="none" xmlns="http://www.w3.org/2000/svg">
<path d="M13.9075 5.5812L9.28749 1.88787C8.57416 1.31453 7.42083 1.31453 6.71416 1.8812L2.09416 5.5812C1.57416 5.99453 1.24083 6.86787 1.35416 7.5212L2.24083 12.8279C2.40083 13.7745 3.30749 14.5412 4.26749 14.5412H11.7342C12.6875 14.5412 13.6008 13.7679 13.7608 12.8279L14.6475 7.5212C14.7542 6.86787 14.4208 5.99453 13.9075 5.5812ZM8.00083 10.3345C7.08083 10.3345 6.33416 9.58787 6.33416 8.66787C6.33416 7.74787 7.08083 7.0012 8.00083 7.0012C8.92083 7.0012 9.66749 7.74787 9.66749 8.66787C9.66749 9.58787 8.92083 10.3345 8.00083 10.3345Z" fill="#008CFF"/>
</svg>
