<svg width="21" height="20" viewBox="0 0 21 20" fill="none" xmlns="http://www.w3.org/2000/svg">
<path d="M10.0517 13.6073C8.06003 13.6073 6.44336 11.9906 6.44336 9.99896C6.44336 8.00729 8.06003 6.39062 10.0517 6.39062C12.0434 6.39062 13.66 8.00729 13.66 9.99896C13.66 11.9906 12.0434 13.6073 10.0517 13.6073ZM10.0517 7.64062C8.75169 7.64062 7.69336 8.69896 7.69336 9.99896C7.69336 11.299 8.75169 12.3573 10.0517 12.3573C11.3517 12.3573 12.41 11.299 12.41 9.99896C12.41 8.69896 11.3517 7.64062 10.0517 7.64062Z" fill="#E6ECF1"/>
<path d="M10.0512 17.5177C6.91784 17.5177 3.95951 15.6844 1.92617 12.501C1.04284 11.126 1.04284 8.88438 1.92617 7.50104C3.96784 4.31771 6.92617 2.48438 10.0512 2.48438C13.1762 2.48438 16.1345 4.31771 18.1678 7.50104C19.0512 8.87604 19.0512 11.1177 18.1678 12.501C16.1345 15.6844 13.1762 17.5177 10.0512 17.5177ZM10.0512 3.73438C7.35951 3.73438 4.78451 5.35104 2.98451 8.17604C2.35951 9.15104 2.35951 10.851 2.98451 11.826C4.78451 14.651 7.35951 16.2677 10.0512 16.2677C12.7428 16.2677 15.3178 14.651 17.1178 11.826C17.7428 10.851 17.7428 9.15104 17.1178 8.17604C15.3178 5.35104 12.7428 3.73438 10.0512 3.73438Z" fill="#E6ECF1"/>
</svg>
