<svg width="42" height="42" viewBox="0 0 42 42" fill="none" xmlns="http://www.w3.org/2000/svg">
<circle cx="21" cy="21" r="21" fill="#1B2C3A"/>
<path d="M28.6084 28.6086H13.391C13.079 28.6086 12.8203 28.3499 12.8203 28.0379C12.8203 27.726 13.079 27.4673 13.391 27.4673H28.6084C28.9203 27.4673 29.179 27.726 29.179 28.0379C29.179 28.3499 28.9203 28.6086 28.6084 28.6086Z" fill="white"/>
<path d="M19.2871 14.913V28.6086H22.711V14.913C22.711 14.076 22.3686 13.3912 21.3415 13.3912H20.6567C19.6295 13.3912 19.2871 14.076 19.2871 14.913Z" fill="white"/>
<path d="M14.1523 19.4782V28.6086H17.1958V19.4782C17.1958 18.6412 16.8915 17.9564 15.9784 17.9564H15.3697C14.4567 17.9564 14.1523 18.6412 14.1523 19.4782Z" fill="white"/>
<path d="M24.8047 23.2826V28.6087H27.8482V23.2826C27.8482 22.4456 27.5438 21.7609 26.6308 21.7609H26.0221C25.109 21.7609 24.8047 22.4456 24.8047 23.2826Z" fill="white"/>
</svg>
