<svg width="24" height="20" viewBox="0 0 24 20" fill="none" xmlns="http://www.w3.org/2000/svg">
<path fill-rule="evenodd" clip-rule="evenodd" d="M10.0006 0.833008C10.2217 0.833008 10.4336 0.920805 10.5899 1.07709C10.7462 1.23337 10.834 1.44533 10.834 1.66634V3.33301C10.834 3.55402 10.7462 3.76598 10.5899 3.92226C10.4336 4.07854 10.2217 4.16634 10.0006 4.16634C9.77964 4.16634 9.56767 4.07854 9.41139 3.92226C9.25511 3.76598 9.16732 3.55402 9.16732 3.33301V1.66634C9.16732 1.44533 9.25511 1.23337 9.41139 1.07709C9.56767 0.920805 9.77964 0.833008 10.0006 0.833008ZM5.00065 9.99967C5.00065 8.67359 5.52743 7.40182 6.46512 6.46414C7.4028 5.52646 8.67457 4.99967 10.0006 4.99967C11.3267 4.99967 12.5985 5.52646 13.5362 6.46414C14.4739 7.40182 15.0006 8.67359 15.0006 9.99967C15.0006 11.3258 14.4739 12.5975 13.5362 13.5352C12.5985 14.4729 11.3267 14.9997 10.0006 14.9997C8.67457 14.9997 7.4028 14.4729 6.46512 13.5352C5.52743 12.5975 5.00065 11.3258 5.00065 9.99967ZM10.0006 6.66634C9.11659 6.66634 8.26875 7.01753 7.64363 7.64265C7.01851 8.26777 6.66732 9.11562 6.66732 9.99967C6.66732 10.8837 7.01851 11.7316 7.64363 12.3567C8.26875 12.9818 9.11659 13.333 10.0006 13.333C10.8847 13.333 11.7326 12.9818 12.3577 12.3567C12.9828 11.7316 13.334 10.8837 13.334 9.99967C13.334 9.11562 12.9828 8.26777 12.3577 7.64265C11.7326 7.01753 10.8847 6.66634 10.0006 6.66634ZM10.834 16.6663C10.834 16.4453 10.7462 16.2334 10.5899 16.0771C10.4336 15.9208 10.2217 15.833 10.0006 15.833C9.77964 15.833 9.56767 15.9208 9.41139 16.0771C9.25511 16.2334 9.16732 16.4453 9.16732 16.6663V18.333C9.16732 18.554 9.25511 18.766 9.41139 18.9223C9.56767 19.0785 9.77964 19.1663 10.0006 19.1663C10.2217 19.1663 10.4336 19.0785 10.5899 18.9223C10.7462 18.766 10.834 18.554 10.834 18.333V16.6663ZM19.1673 9.99967C19.1673 10.2207 19.0795 10.4326 18.9232 10.5889C18.767 10.7452 18.555 10.833 18.334 10.833H16.6673C16.4463 10.833 16.2343 10.7452 16.0781 10.5889C15.9218 10.4326 15.834 10.2207 15.834 9.99967C15.834 9.77866 15.9218 9.5667 16.0781 9.41042C16.2343 9.25414 16.4463 9.16634 16.6673 9.16634H18.334C18.555 9.16634 18.767 9.25414 18.9232 9.41042C19.0795 9.5667 19.1673 9.77866 19.1673 9.99967ZM3.33398 10.833C3.555 10.833 3.76696 10.7452 3.92324 10.5889C4.07952 10.4326 4.16732 10.2207 4.16732 9.99967C4.16732 9.77866 4.07952 9.5667 3.92324 9.41042C3.76696 9.25414 3.555 9.16634 3.33398 9.16634H1.66732C1.4463 9.16634 1.23434 9.25414 1.07806 9.41042C0.921782 9.5667 0.833984 9.77866 0.833984 9.99967C0.833984 10.2207 0.921782 10.4326 1.07806 10.5889C1.23434 10.7452 1.4463 10.833 1.66732 10.833H3.33398ZM16.4823 3.51801C16.6385 3.67428 16.7263 3.8862 16.7263 4.10717C16.7263 4.32814 16.6385 4.54007 16.4823 4.69634L15.304 5.87467C15.2271 5.95427 15.1352 6.01775 15.0335 6.06143C14.9318 6.1051 14.8225 6.12809 14.7118 6.12905C14.6012 6.13001 14.4914 6.10893 14.389 6.06703C14.2866 6.02512 14.1936 5.96325 14.1153 5.885C14.0371 5.80676 13.9752 5.71372 13.9333 5.6113C13.8914 5.50889 13.8703 5.39916 13.8713 5.28851C13.8722 5.17786 13.8952 5.06851 13.9389 4.96684C13.9826 4.86517 14.0461 4.77321 14.1256 4.69634L15.304 3.51801C15.4603 3.36178 15.6722 3.27402 15.8931 3.27402C16.1141 3.27402 16.326 3.36178 16.4823 3.51801ZM5.87565 15.303C5.95524 15.2261 6.01873 15.1342 6.0624 15.0325C6.10608 14.9308 6.12906 14.8215 6.13003 14.7108C6.13099 14.6002 6.1099 14.4905 6.068 14.388C6.0261 14.2856 5.96422 14.1926 5.88598 14.1143C5.80774 14.0361 5.71469 13.9742 5.61228 13.9323C5.50986 13.8904 5.40013 13.8693 5.28948 13.8703C5.17883 13.8713 5.06948 13.8942 4.96781 13.9379C4.86614 13.9816 4.77419 14.0451 4.69732 14.1247L3.51898 15.303C3.43939 15.3799 3.37591 15.4718 3.33223 15.5735C3.28856 15.6752 3.26557 15.7845 3.26461 15.8952C3.26365 16.0058 3.28473 16.1156 3.32663 16.218C3.36853 16.3204 3.43041 16.4134 3.50865 16.4917C3.5869 16.5699 3.67994 16.6318 3.78236 16.6737C3.88477 16.7156 3.9945 16.7367 4.10515 16.7357C4.2158 16.7348 4.32515 16.7118 4.42682 16.6681C4.52849 16.6244 4.62044 16.5609 4.69732 16.4813L5.87565 15.303ZM3.51898 3.51801C3.67526 3.36178 3.88718 3.27402 4.10815 3.27402C4.32912 3.27402 4.54104 3.36178 4.69732 3.51801L5.87565 4.69634C5.95524 4.77321 6.01873 4.86517 6.0624 4.96684C6.10608 5.06851 6.12906 5.17786 6.13003 5.28851C6.13099 5.39916 6.1099 5.50889 6.068 5.6113C6.0261 5.71372 5.96422 5.80676 5.88598 5.885C5.80774 5.96325 5.71469 6.02512 5.61228 6.06703C5.50986 6.10893 5.40013 6.13001 5.28948 6.12905C5.17883 6.12809 5.06948 6.1051 4.96781 6.06143C4.86614 6.01775 4.77419 5.95427 4.69732 5.87467L3.51898 4.69634C3.36276 4.54007 3.275 4.32814 3.275 4.10717C3.275 3.8862 3.36276 3.67428 3.51898 3.51801ZM15.304 14.1247C15.1468 13.9729 14.9363 13.8889 14.7178 13.8908C14.4993 13.8927 14.2903 13.9803 14.1358 14.1348C13.9813 14.2893 13.8937 14.4983 13.8918 14.7168C13.8899 14.9353 13.9739 15.1458 14.1256 15.303L15.304 16.4813C15.4612 16.6331 15.6717 16.7171 15.8902 16.7152C16.1086 16.7133 16.3177 16.6257 16.4722 16.4712C16.6267 16.3167 16.7143 16.1077 16.7162 15.8892C16.7181 15.6707 16.6341 15.4602 16.4823 15.303L15.304 14.1247Z" fill="#4D8194"/>
</svg>
