<svg width="18" height="16" viewBox="0 0 18 16" fill="none" xmlns="http://www.w3.org/2000/svg">
<path d="M13.166 0.916992H4.83268C2.33268 0.916992 0.666016 2.16699 0.666016 5.08366V10.917C0.666016 13.8337 2.33268 15.0837 4.83268 15.0837H13.166C15.666 15.0837 17.3327 13.8337 17.3327 10.917V5.08366C17.3327 2.16699 15.666 0.916992 13.166 0.916992ZM13.5577 5.99199L10.9493 8.07533C10.3993 8.51699 9.69935 8.73366 8.99935 8.73366C8.29935 8.73366 7.59102 8.51699 7.04935 8.07533L4.44102 5.99199C4.17435 5.77533 4.13268 5.37533 4.34102 5.10866C4.55768 4.84199 4.94935 4.79199 5.21602 5.00866L7.82435 7.09199C8.45768 7.60033 9.53268 7.60033 10.166 7.09199L12.7744 5.00866C13.041 4.79199 13.441 4.83366 13.6493 5.10866C13.866 5.37533 13.8243 5.77533 13.5577 5.99199Z" fill="#008394"/>
</svg>
